<?xml version="1.0" standalone="no"?>
<!DOCTYPE svg PUBLIC "-//W3C//DTD SVG 20010904//EN"
 "http://www.w3.org/TR/2001/REC-SVG-20010904/DTD/svg10.dtd">
<svg version="1.0" xmlns="http://www.w3.org/2000/svg"
 width="500.000000pt" height="500.000000pt" viewBox="0 0 500.000000 500.000000"
 preserveAspectRatio="xMidYMid meet">
<metadata>
Created by potrace 1.14, written by Peter Selinger 2001-2017
</metadata>
<g transform="translate(0.000000,500.000000) scale(0.100000,-0.100000)"
fill="#000000" stroke="none">
<path d="M679 4823 c-1 -4 -1 -10 -1 -13 0 -3 3 -68 7 -145 3 -77 8 -169 10
-205 3 -57 8 -159 20 -395 12 -242 16 -310 20 -380 2 -44 7 -136 10 -205 4
-69 8 -156 10 -195 3 -38 7 -115 9 -170 8 -164 16 -324 22 -420 8 -150 15
-275 19 -370 4 -97 15 -306 19 -368 3 -34 15 -54 66 -108 8 -8 30 -34 48 -57
19 -23 44 -52 55 -65 21 -22 85 -97 124 -143 46 -54 111 -129 138 -158 17 -18
46 -53 67 -77 20 -24 44 -54 55 -65 10 -12 38 -45 63 -75 25 -29 52 -60 60
-69 8 -9 42 -47 75 -85 32 -39 66 -77 75 -86 8 -9 33 -38 55 -65 22 -27 51
-61 65 -76 14 -14 34 -37 44 -50 28 -34 118 -139 136 -158 8 -9 35 -41 60 -70
25 -29 52 -60 60 -69 8 -9 39 -46 69 -81 30 -36 64 -75 75 -86 12 -12 35 -39
53 -60 17 -22 48 -58 70 -82 l38 -42 40 36 c22 19 59 52 83 72 23 20 55 48 70
62 16 14 61 54 101 90 40 36 88 79 106 95 18 17 46 41 63 55 34 29 198 174
358 317 17 15 62 55 99 88 38 33 79 69 91 80 12 11 48 43 79 70 32 28 66 57
75 66 15 14 191 170 304 269 16 14 41 36 56 50 15 14 43 38 61 54 65 56 251
222 300 266 l38 35 6 130 c4 72 9 155 10 185 2 30 6 107 9 170 4 63 9 153 11
200 3 47 7 126 10 175 4 50 8 128 10 175 3 77 7 143 20 365 2 39 7 122 10 185
3 63 8 149 10 190 6 88 13 216 20 350 6 136 15 295 21 370 2 36 6 117 9 180 3
63 7 145 10 183 4 37 2 67 -2 68 -12 2 -205 6 -628 13 -209 4 -481 9 -605 11
-124 3 -360 7 -525 10 -165 3 -412 7 -550 10 -137 3 -374 7 -525 10 -151 2
-425 7 -607 10 -183 4 -334 3 -334 -2z"/>
</g>
</svg>
